<?xml version="1.0" standalone="no"?>
<!DOCTYPE svg PUBLIC "-//W3C//DTD SVG 20010904//EN"
 "http://www.w3.org/TR/2001/REC-SVG-20010904/DTD/svg10.dtd">
<svg version="1.0" xmlns="http://www.w3.org/2000/svg"
 width="2042.000000pt" height="2042.000000pt" viewBox="0 0 2042.000000 2042.000000"
 preserveAspectRatio="xMidYMid meet">
<metadata>
Created by potrace 1.11, written by Peter Selinger 2001-2013
</metadata>
<g transform="translate(0.000000,2042.000000) scale(0.100000,-0.100000)"
fill="#000000" stroke="none">
<path d="M16975 17068 c-2402 -1928 -5605 -4487 -6581 -5259 l-61 -48 -393
647 c-1110 1827 -2307 3792 -2314 3799 -1 1 -103 -27 -226 -63 -124 -35 -349
-99 -500 -140 -151 -42 -278 -79 -282 -83 -4 -4 8 -78 27 -166 56 -264 109
-560 200 -1135 207 -1308 325 -1799 567 -2365 104 -243 165 -355 392 -720 104
-166 257 -470 309 -610 46 -126 81 -250 104 -363 26 -126 25 -453 -1 -572 -55
-256 -182 -518 -373 -771 -164 -217 -343 -405 -733 -767 -887 -821 -1565
-1493 -3089 -3057 -322 -330 -729 -746 -905 -925 -177 -179 -378 -384 -449
-455 l-127 -131 129 -97 c72 -53 225 -171 342 -262 l212 -166 26 24 c14 13
267 239 561 503 574 514 1619 1454 2445 2199 602 543 2991 2703 3067 2773 l27
24 16 -38 c44 -105 251 -670 403 -1099 415 -1171 542 -1492 777 -1970 305
-619 638 -1098 1335 -1919 135 -159 328 -386 429 -505 101 -119 246 -293 322
-388 126 -156 142 -172 162 -164 12 5 60 26 107 46 47 21 229 95 405 166 257
103 320 132 319 146 -1 10 -15 144 -32 298 -18 154 -43 388 -57 520 -66 617
-119 847 -312 1349 -470 1223 -927 2272 -1470 3376 -102 206 -207 428 -233
493 -97 233 -165 480 -191 690 -16 138 -6 404 20 529 77 359 272 689 606 1024
153 153 272 253 605 509 794 611 1699 1366 2790 2330 614 542 2000 1781 2128
1902 179 169 264 278 539 692 183 274 232 356 221 362 -32 18 -272 189 -401
286 -75 57 -143 106 -150 108 -7 3 -327 -248 -712 -557z"/>
</g>
</svg>
