<?xml version="1.0" encoding="utf-8"?>
<!-- Generator: Adobe Illustrator 19.1.0, SVG Export Plug-In . SVG Version: 6.00 Build 0)  -->
<svg version="1.1" id="Ebene_1" xmlns="http://www.w3.org/2000/svg" xmlns:xlink="http://www.w3.org/1999/xlink" x="0px" y="0px"
	 width="800px" height="800px" viewBox="0 0 800 800" style="enable-background:new 0 0 800 800;" xml:space="preserve">
<style type="text/css">
	.st0{fill:#FFFFFF;}
</style>
<path class="st0" d="M653.9,400.5c0,122.6-99.8,222.4-222.4,222.4s-222.4-99.8-222.4-222.4s99.8-222.4,222.4-222.4
	c24.6,0,48.2,4,70.3,11.4l-40.6,60.6l215.4,32L564.1,96.5l-34.6,51.6c-30.8-12-63.9-18.2-98-18.2c-72.3,0-140.2,28.1-191.3,79.3
	c-51.1,51.1-79.3,119.1-79.3,191.3s28.1,140.2,79.3,191.3c51.1,51.1,119.1,79.3,191.3,79.3s140.2-28.1,191.3-79.3
	c51.1-51.1,79.3-119.1,79.3-191.3H653.9z"/>
</svg>
