<?xml version="1.0" encoding="utf-8"?>
<!-- Generator: Adobe Illustrator 19.1.0, SVG Export Plug-In . SVG Version: 6.00 Build 0)  -->
<svg version="1.1" id="Ebene_1" xmlns="http://www.w3.org/2000/svg" xmlns:xlink="http://www.w3.org/1999/xlink" x="0px" y="0px"
	 width="96px" height="96px" viewBox="0 0 96 96" style="enable-background:new 0 0 96 96;" xml:space="preserve">
<style type="text/css">
	.st0{fill:#161616;}
</style>
<g>
	<path class="st0" d="M31.1,10.9c5.5,9,10.9,17.9,17.1,28.1C64.2,26.3,79.4,14.1,94.6,1.9c1.2,0.9,2.4,1.8,3.6,2.6
		c-1.6,2.2-2.9,4.8-5,6.7c-10.5,9.3-20.7,18.8-32,27.4c-7.5,5.7-8.3,11.1-4.8,18.2c4,7.9,7.5,16.1,10.6,24.3c1.4,3.8,1.4,8.2,2,12.3
		c-1.8,0.7-3.6,1.4-5.4,2.2c-4.3-5.5-9.5-10.6-12.8-16.5c-3.6-6.3-5.4-13.3-8.8-22C28.1,69.7,15.7,80.9,3.3,92
		c-1.4-1.1-2.8-2.2-4.3-3.3c9.8-9.8,19.2-20,29.5-29.4c7.2-6.6,8.7-11.4,3.2-19.8c-4.9-7.6-4.9-17.8-7-26.8
		C26.9,12.1,29,11.5,31.1,10.9z"/>
</g>
</svg>
